<svg id="a9ee5322-7dec-4881-99cd-b5493b840d8e" data-name="图层 1" xmlns="http://www.w3.org/2000/svg" viewBox="0 0 4000 775.21"><line x1="4000" y1="774.86" y2="774.86" style="fill:#5d5d5d"/><path d="M96.1,320.44c-3.92-35.16-69.32-176.65-41-223.18,18.1-27.79,44.9-17.48,57.19-15.6C121,83,114,50.12,145.05,37.41c15.76-6.44,34.58-4.74,53.75,14.22,12.32,10.35,21-29.49,59.27-27.79,34.27,1.53,40.24,45.27,47.24,46.67,10.69,2.14,31-14.42,48.95-6.34,37.82,17,55,70.25,11.95,162.09-54.28,115.73-41,111.46-36.06,288.16C335.64,653.32,343.43,799,343.43,799H62.18S91.61,565.21,96.39,442.62C97.29,419.54,101.56,369.31,96.1,320.44Z" transform="translate(1839.77 -23.79)" style="fill:#d3d4d6"/><path d="M118,414.51A87.89,87.89,0,0,0,98.25,403.6c-.21,5.65-.46,11-.7,15.92,26.51,12.76,35.26,7.52,58.27,9.8,23.43,2.31,56.72-4.52,72.94-10.49-.85-8.54-23.58,3.41-52.34-3.42S137.65,429,118,414.51Z" transform="translate(1839.77 -23.79)" style="fill:#f4e9e3"/><path d="M209.34,169.26c-30.78,0-28.42,20.78-53.67,39.51-23.92,17.74-19.73,40.19-3.16,49,23.59,12.6,43.66-7.16,57.48-7.16s38.41,24.53,61.3,4.43.15-41-13-51.77C242.88,190.72,238.93,169.26,209.34,169.26Z" transform="translate(1839.77 -23.79)" style="fill:#fff"/><path d="M94.07,125.33c-16.26,6.65.83,59.68,23,48.39C135.33,164.43,115.75,116.46,94.07,125.33Z" transform="translate(1839.77 -23.79)" style="fill:#fff"/><path d="M164.29,87.2c-26.38,3.93-8.26,57.51,12.19,55.3S194.12,82.75,164.29,87.2Z" transform="translate(1839.77 -23.79)" style="fill:#fff"/><path d="M254.36,83.33c-25.16-2.91-30.47,49.63-8.57,54.61S280.29,86.32,254.36,83.33Z" transform="translate(1839.77 -23.79)" style="fill:#fff"/><path d="M331,117.7c-25.32-8.93-39.85,39.06-23.93,49C333.81,179.29,347.6,123.55,331,117.7Z" transform="translate(1839.77 -23.79)" style="fill:#fff"/><path d="M95,470.82c-.91,15.31-2.07,31.7-3.41,48.69,11.4.65,20.23-1,21.78-4,4-7.76,64.54,12.93,97,15.51s19.25-15.51,46.39-22,46.53-22,11.84-15.51C241.29,498.62,156.84,496.5,95,470.82Z" transform="translate(1839.77 -23.79)" style="fill:#f4e9e3"/><path d="M95.06,630.55c20.57,9,53.1,20.68,56.14,9.46s57.71,12.51,56.56-1.71,45.09,7.76,76.32,0-2.79-11.63-34.45-20.68-49.77,3.88-76.57-9-39.59,12.74-70.14-12.92c-6.73-5.65-12.27-9.21-17-11.43-1.44,15.17-3,30.33-4.47,45.2C84.84,628.1,88.89,627.84,95.06,630.55Z" transform="translate(1839.77 -23.79)" style="fill:#f4e9e3"/><path d="M96.69,740c21.54,14.65,27.57-3.44,50,5.17s28.43,5.17,53.42,4.31S248.35,746,232,740s-35.33.86-60.32-12.06-39.64-3.45-65.49-17.24c-15-8-23.08-7.6-32.45-9.57-1.27,11.36-2.5,22.1-3.64,32C78.2,733.08,86.26,732.89,96.69,740Z" transform="translate(1839.77 -23.79)" style="fill:#f4e9e3"/><path d="M145.81,688.71c12.06,10.34,34.46,5.17,49.11,5.17s8.62,12.93,36.19,5.17,34,14.44,55.36,2.48,37,2.59,51.49-5.93l.24-.13c-.58-12-1.18-24.63-1.8-37.83-15.94,10.74-24.68,5.33-44.11,10.46-25.85,6.82-38.77-6.82-56,0s-27.16,1.16-49.11,6C164.8,679,133.74,678.37,145.81,688.71Z" transform="translate(1839.77 -23.79)" style="fill:#f4e9e3"/><path d="M169.26,578.84c24.56,12.93,71.38,2.59,94.5,0S309,584,326.4,572.38a48.07,48.07,0,0,0,5.94-4.88c-.56-13.13-1.11-26.37-1.65-39.6l-4.29,1.83c-43.66,18.78-77,31-69.24,33.6s-62.3-6.46-47.31,6.47S144.7,565.92,169.26,578.84Z" transform="translate(1839.77 -23.79)" style="fill:#f4e9e3"/><path d="M340.23,736.72c-7.55,2.16-6.94,6.43-8.51,11.66-2.59,8.62-45.67,7.13-42.23,13.47s-50.24,1.18-56.57,8.94S140,779.41,162.61,786.3s74.66-.86,100.77,0,44.21-12.93,59.72-6.9c8.21,3.2,12.33-.37,19.11-3.79C341.68,765.4,341,752.22,340.23,736.72Z" transform="translate(1839.77 -23.79)" style="fill:#f4e9e3"/><path d="M216.46,466.39c10.35,5.17,40.07-3.23,51.71-2.58s2.28,12.43,24.4,3.63,26-7.51,26.65-4.28c.25,1.24,4,.07,9-2.69-.48-11.29-.95-21.63-1.38-31.15-6,3.18-7.76,5.35-7,9,1.29,6.13-40.3,4.19-33.4,10.65s-32.52,12.28-57.73,9.7S206.12,461.22,216.46,466.39Z" transform="translate(1839.77 -23.79)" style="fill:#f4e9e3"/></svg>