<svg id="fc229edb-bb34-474f-9c87-bf944fb86167" data-name="图层 1" xmlns="http://www.w3.org/2000/svg" viewBox="0 0 4000 798.09"><path d="M-1839.77,798.65" transform="translate(823.34 -2.43)" style="fill:#5d5d5d"/><path d="M2160.23,798.65" transform="translate(823.34 -2.43)" style="fill:#5d5d5d"/><line x1="4000" y1="798.09" y2="798.09" style="fill:#5d5d5d"/><path d="M102.31,242.56c-20-50.41-78.86-128.77-59.89-158.71,25.79-40.73,69.62-8,76.73-11s-8.35-55,29.94-67.75c41.55-13.85,57.65,30.32,67.75,31.82S244-8.73,287.71,6.49c29.45,10.23,31.32,39.8,26.83,64.13-.75,7.86,7.14-5.44,31-11.48,31.52-8,63.71,23,42,70.93s-70.12,101.51-72.62,123,26.95,414.23,35.94,547.49H63.75S118.48,283.4,102.31,242.56Z" transform="translate(823.34 -2.43)" style="fill:#f4e9e3"/><path d="M206.12,152.92c51.43,0,65.4,53.15,46.69,67.38s-24.71-9.74-45.67-9.74-27.7,24-46.42,7.49S159.23,152.92,206.12,152.92Z" transform="translate(823.34 -2.43)" style="fill:#eba3a3"/><path d="M100.34,129.46c-14.47,11.86,14.94,34.79,24.75,26.45S113.51,118.67,100.34,129.46Z" transform="translate(823.34 -2.43)" style="fill:#eba3a3"/><path d="M168.14,85c-10.74,4.6,1.17,37.68,13.1,33.87C191.53,115.57,185.17,77.68,168.14,85Z" transform="translate(823.34 -2.43)" style="fill:#eba3a3"/><path d="M256.47,87.23C240.69,82.11,227.6,120,241.58,125S274.94,93.21,256.47,87.23Z" transform="translate(823.34 -2.43)" style="fill:#eba3a3"/><path d="M320.31,129.13c-11.67-9.2-34.94,19.42-23.46,28.41S334.28,140.16,320.31,129.13Z" transform="translate(823.34 -2.43)" style="fill:#eba3a3"/><path d="M333.19,550.57c-23.44,104.88-62.55,71.94-64,118.35s-61.13,25.46-66.45,62.89c-2.9,20.36-21.27,44.71-18,68.72h166C347.18,746.14,340.11,648.53,333.19,550.57Z" transform="translate(823.34 -2.43)" style="fill:#593524"/><path d="M177.62,561.8c-8.61-40.42,25.08-59.89,46-104.24s-59.89-41-72.63-73.93c-10.2-26.36-24.68-9.6-48.48-26.38-3.77,66.75-10.88,152.41-18,230.61C122.9,607.67,184.9,596,177.62,561.8Z" transform="translate(823.34 -2.43)" style="fill:#593524"/><path d="M74.15,697.82c-.87,8.84-1.7,17.29-2.5,25.26-2.84,29.5-5.46,56-7.63,77.45C87.41,768.25,93.44,730.91,74.15,697.82Z" transform="translate(823.34 -2.43)" style="fill:#593524"/></svg>