<svg xmlns="http://www.w3.org/2000/svg" viewBox="0 0 4000 829.81"><g style="isolation:isolate"><g id="bb2a1c57-3a28-4fa2-bb6b-711fdebda652" data-name="图层 1"><path d="M-1817.77,862.65" transform="translate(1433.34 -34.99)" style="fill:#5d5d5d"/><path d="M2182.23,862.65" transform="translate(1433.34 -34.99)" style="fill:#5d5d5d"/><path d="M-801.34,864.53" transform="translate(1433.34 -34.99)" style="fill:#5d5d5d"/><path d="M3198.66,864.53" transform="translate(1433.34 -34.99)" style="fill:#5d5d5d"/><line x1="4000" y1="829.81" y2="829.81" style="fill:#5d5d5d"/><path d="M54.21,150c-8.42-5.31-15.14-19.39-20.52-32.42,13.05,5,27.52,10.31,33.39,19.7C65.54,140.89,54.21,150,54.21,150Z" transform="translate(1433.34 -34.99)" style="fill:#d9cfca"/><path d="M153.63,74.24c-5.25-8.46-5.23-24.63-4.28-38.13,8.13,7,20.24,20.19,21.41,31.2C167.8,69.87,153.63,74.24,153.63,74.24Z" transform="translate(1433.34 -34.99)" style="fill:#d9cfca"/><path d="M279.8,69.91C279.64,60,287.94,46.42,295.7,35c3,13.44,6.43,28.68,1.79,38.73C293.64,74.4,279.8,69.91,279.8,69.91Z" transform="translate(1433.34 -34.99)" style="fill:#d9cfca"/><path d="M375.25,127.43c3.77-8.81,16.85-16.07,31.58-21.8-4.67,14.29-9.22,27.92-18.36,34.15C384.81,138.38,375.25,127.43,375.25,127.43Z" transform="translate(1433.34 -34.99)" style="fill:#d9cfca"/><path d="M72.63,864.06c-7.74-12,.12-16.47-5-23.59,8.36-9,2.93-21.71,1.15-23.58C78,812.08,74.06,800.42,73,797.8c7.09-6.48,5.27-14.22,4.15-18.34,4.59-4.74,6-12.73,3-17.22,3.51-7.06,1.49-13.47-.75-18C90.22,731.55,82,721.44,82,721.44c5.49-6.4,3-18.71,3-18.71a19,19,0,0,0-2.25-19.09c6.36-9.73,7-16.47,3.88-17.22,6.21-8.34,5.29-14.22,1.83-19.46,5.76-4.07,2.15-18.35-.85-21.34,6.37-4.12,5.62-15.72,4.49-19.84,5.52-1.19,4.13-15,.76-18.34,2.61-4.49,8.17-13.1,3-16.84,7.51-10.48,7.51-19.84,0-17.6,7.37-15.29,3.36-20.21-.38-17.59,9.5-19.91,6.74-26.57.38-29.19,16.47-14.23-2.62-22.84-4.5-22.84,17-14.26,17.79-28.07,11.14-26.57,1.22-10.86,13.57-33.32-2.15-31.82,7.86-7.86,12.35-19.09-1.13-23.58C111.62,384.3,107.81,379.7,103,370c7.11-12,15.34-30.32,2.62-36.68,8-12.77-5.62-23.59-7.86-23.21,1.12-17.59-7.86-18.72-13.1-18.72,10.85-10.1,4.49-29.19-5.24-27.7,5.73-9.82-6.37-15.34-13.85-16.09,4.49-7.49,6.36-22.83-9.36-22.83,8.07-10.57.06-29.2-12.7-28.83,8.89-9.83-.78-26.2-7.14-26.95,6.74-10.1,3-19.09,0-24,16.1-3.37,21-9.36,24-24.71,7.86,5.62,14.59,1.88,15.72-3.37,7.86,7.12,16.84,2.25,19.46-1.87,3.37,11.23,16.1,13.85,19.47,7.49,7.48,7.49,17.59,3,7.48-7.49,9-9.73,4.87-14.22-.37-20.21,9-.37,15-9.38,11.29-20.61C146.67,77.12,146,64.78,146,62.91c9.73,4.21,13.47-1.07,15.34-8.89,10.86,10.07,13.87,5.27,19.49.41C184.91,67.64,195,63.41,198,60c1.13,11.6,11.23,16.1,16.47,13.47-.37,9,3.13,19.84,8.86,16.47,2.37,10.49,12.48.75,8.73-7.48,12.36,1.49,13.36-4.49,13.36-10,9.14,2.83,12.22-2.88,12.22-6.56,10.69,2.66,15-2.93,15.22-3.67,8,2.74,10.18-3,10.18-3a14.13,14.13,0,0,0,14.78,2.28c4,8.73,11,8.23,12,7.48,1.51,9.47,9.23,10.23,9.23,10.23a16.37,16.37,0,0,0,6.74,13.23c-1.74,9.63,3,11.48,3,11.48-3.66,6.69-2,14,1.25,12.72-5.11,6.46-4,14.48-1.75,10.74.52,6.77,7.49-.25,7.49-5.74,8.55,4.26,12-3.5,12-4.5,7,6.74,12.72-3.24,12.72-3.24,7.3,7.63,15.23-1.25,15.23-.25,3.49,8.73,7.36,9.23,13.84,7-2.37,6.86,4.25,10,8,9-1,7.49.5,9.73,4.49,10.23-2.37,4.73.13,9.73,3.74,10.86-5.11,2.49-.87,11.1,2.13,11-2.13,6.11-5.24,10.1-.88,13-5.49,1-5.65,8.11-3.51,10.48-5.19,3.94,1,4.37-4.35,11s-7.24,7.11-5.86,10c-2.75,4.25-7,7.54-5.24,10.45-4.12,5.53-6.49,8.89-5,13.51-4.25,6-10,4.12-7.12,10.36-5,6.36-9.6,4.86-5.86,11.35-6.61,1.12-9,6-8.11,7.74-6.62,1.87-11.6,5.8-8.23,10.85-7.68,2.62-9.55,7.86-5.81,12.35-9.35,3.55-9.54,7.86-7.11,12.17-11,2.06-12.35,8.42-9.73,11.6-6.42,6-12.54,5.62-5.24,10.86-.75,5.24-6.18,6-.37,12-5.06,12.17-3,18.53,1.49,20.78-4.86,4.49,1.82,2.93-1.71,10.82s-1.66,14.82,2.84,16.88c-3.75,7.11-1.13,13.47,1.68,13.85-8.42,6-.94,13.66,1.87,14.22-6.74,6-3.37,20.21-.37,20.78-8,6-4,12.58-1.14,13.87-7.1,10.27,0,20.37,4.88,22.62-6,4.3-9,7.11-3.56,11.23-1.68,7.3,1.5,15.53,5.24,16.66-7.29,6.17-4.49,12.16.38,12.91-5.62,7.86-2.62,12.17.56,13.29-5.05,2.62-6.42,10.7-1.53,11.8-2.77,6.35-.53,12.9,4.52,13.28-5.24,4.49-2.05,13.66,1.31,13.85-3.7,3.55-4.86,15.34.38,16.47-3.93,8.79-5.05,20.21,2.43,22.27-3.45,8.41-8.61,16.28-.37,20.58-2.44,9.17-6.74,16.47.37,19.84-2.43,7.49,0,21.71,7.86,23.21-9.92,9-11.23,24.7-2.24,27.51-6.74,5.62-5.24,17,1.87,18.34-8.61,7.68-5.8,29.2,5.61,30.13-9.36,9.92-6.73,23.77-.56,25.27-2.62,8.05-4.12,16.66,2.81,19.46-11.42,3.37-5.43,22.28,1.68,23.77-6.92,4.12,3.18,9.36,0,20.4s-6.17,16.1,1.5,17.78c-6.55,3.37-.19,20.78,2.62,23.58C349.62,864.8,72.63,864.06,72.63,864.06Z" transform="translate(1433.34 -34.99)" style="fill:#fff"/><path d="M105,394.27a13.72,13.72,0,0,0-.3-1.61,68.55,68.55,0,0,1-5.53,8.75c13.47,4.49,9,15.72,1.12,23.58,15.72-1.5,3.37,21,2.15,31.82,6.65-1.5,5.88,12.31-11.14,26.57,1.88,0,21,8.61,4.5,22.84,6.36,2.62,9.12,9.28-.38,29.19,3.75-2.62,7.75,2.3.38,17.59,7.48-2.24,7.48,7.12,0,17.6,5.21,3.74-.35,12.35-3,16.84,3.37,3.37,4.76,17.15-.76,18.34,1.13,4.12,1.88,15.72-4.49,19.84,3,3,6.61,17.27.85,21.34,3.46,5.24,4.38,11.12-1.83,19.46,3.14.75,2.48,7.49-3.88,17.22A19,19,0,0,1,85,702.73s2.52,12.31-3,18.71c0,0,8.2,10.11-2.65,22.84,2.24,4.49,4.26,10.9.75,18,3,4.49,1.59,12.48-3,17.22,1.12,4.12,2.94,11.86-4.15,18.34,1.09,2.62,5,14.28-4.18,19.09,1.78,1.87,7.21,14.6-1.15,23.58,5.11,7.12-2.75,11.61,5,23.59,0,0,277,.74,293.27.74-2.81-2.8-9.17-20.21-2.62-23.58-7.67-1.68-4.68-6.74-1.5-17.78s-6.92-16.28,0-20.4c-7.11-1.49-13.1-20.4-1.68-23.77-6.93-2.8-5.43-11.41-2.81-19.46-6.17-1.5-8.8-15.35.56-25.27-11.41-.93-14.22-22.45-5.61-30.13-7.11-1.31-8.61-12.72-1.87-18.34-9-2.81-7.68-18.53,2.24-27.51-7.86-1.5-10.29-15.72-7.86-23.21-7.11-3.37-2.81-10.67-.37-19.84-8.24-4.3-3.08-12.17.37-20.58-7.48-2.06-6.36-13.48-2.43-22.27-5.24-1.13-4.08-12.92-.38-16.47-3.36-.19-6.55-9.36-1.31-13.85-5.05-.38-7.29-6.93-4.52-13.28-4.89-1.1-3.52-9.18,1.53-11.8-3.18-1.12-6.18-5.43-.56-13.29-4.87-.75-7.67-6.74-.38-12.91-3.74-1.13-6.92-9.36-5.24-16.66-5.42-4.12-2.43-6.93,3.56-11.23-4.87-2.25-12-12.35-4.88-22.62-2.82-1.29-6.91-7.89,1.14-13.87-3-.57-6.37-14.79.37-20.78-1.44-.29-4.12-2.46-5.24-5.32-1.51,4-6,4.78-17-2.28,0,0-12.15,12.54-16.57-.12,0,0-7.73,13.76-21,6.08-9.94,7.78-25.4-8.89-33.13-6.68-4.42,7.73-13.26,0-27.62-1.17-5.52,14.29-12.15,8.9-27.92-.76-3.62,6.9-8.53,11.87-26.2,0-12.15-4.15-23.2,9.66-32,0S107.25,410.84,105,394.27Z" transform="translate(1433.34 -34.99)" style="fill:#b5bdcc"/><g style="mix-blend-mode:multiply"><path d="M216.89,344.94a88,88,0,0,1-27.47-4.21,4.49,4.49,0,1,1,2.84-8.52c14.86,5,34.33,4.94,49.59,0a4.5,4.5,0,0,1,2.78,8.55A90.77,90.77,0,0,1,216.89,344.94Z" transform="translate(1433.34 -34.99)" style="fill:#b7c4de"/></g><path d="M221.21,212.69c51.42,0,65.4,53.15,46.68,67.37s-24.7-9.73-45.66-9.73-27.7,24-46.42,7.49S174.31,212.69,221.21,212.69Z" transform="translate(1433.34 -34.99)" style="fill:#593524"/><path d="M113.18,190.07c-14.58,11.73,16.47,34.44,26.95,27S127.15,178.83,113.18,190.07Z" transform="translate(1433.34 -34.99)" style="fill:#593524"/><path d="M179,140.67c-11.33,3.77-2,39,10.24,37.34C210.44,175.11,196.4,134.87,179,140.67Z" transform="translate(1433.34 -34.99)" style="fill:#593524"/><path d="M272.64,141.41c-15.79-5.11-27.2,31.19-13.23,36.18S291.1,147.4,272.64,141.41Z" transform="translate(1433.34 -34.99)" style="fill:#593524"/><path d="M337.76,188.85c-11.66-9.2-34.93,19.42-23.45,28.4S351.74,199.87,337.76,188.85Z" transform="translate(1433.34 -34.99)" style="fill:#593524"/></g></g></svg>