<svg id="f966826c-92bf-4060-8b07-0db9a25b45b5" data-name="图层 1" xmlns="http://www.w3.org/2000/svg" viewBox="0 0 4000 809.3"><line x1="4000" y1="809.3" y2="809.3" style="fill:#5d5d5d"/><path d="M59.57,853c-20.19-25.53-3.26-43.23,5.86-92.79S51.1,701,71.29,659.18c25.46-52.67-11.72-78.83,7.82-111.4,21.35-35.59-9.12-28.33,9.12-66.56s-13.59-50.09-6.51-82.14S57.36,347.26,69.54,322.9s-28.85-42.49-17.78-75.82-15.08-70.26,3-79.78c29.77-15.65,13.47-50,26.27-48.63,20.9,2.32,40.39,12,39.08-3.54s-3.25-14.87,13.68-22.65-8.67-31.87,14.55-26.2,18-17.34,31.69-3.72,1.38-13,19.89,5.84c31.55,32,18.05-13.22,34.59-12.78,19.86.53,18.72-20,31-8.32,10.42,9.94,22.84-8.49,27.64,5.67s12.71,2.12,16.28,23.36,6.84,6,7.4,26.77c.45,16.46,15.1-19.12,31.65-.71s39.08-3.07,37.21,21.94,35,41.11,23.32,65.89,15.28,35.75,2,54.27,15.87,34.21-4.32,52.62,11.72,27.64-7.72,47.58,4.08,39.3-13.12,55.1,5.86,42.48-10.42,54.52,18.61,24.08,2,48.15,8.08,55.93-3.64,67.26,13.94,34.79,2.34,54.53,18,38.1,4.56,52.4,13,27.62,3.91,42.49,11.47,34.87,3.78,49.65-4.43,28.24,2.73,35.32-7.82,19.11-.65,31.86-5.21,17-5.21,17Z" transform="translate(2071.53 -43.7)" style="fill:#f4e9e3"/><path d="M231,240.29c-25.2,0-23.27,18.11-43.94,34.43-19.59,15.47-16.16,35-2.59,42.75,19.31,11,35.75-6.23,47.06-6.23s31.45,21.37,50.19,3.86S281.81,279.37,271,270C258.43,259,255.2,240.29,231,240.29Z" transform="translate(2071.53 -43.7)" style="fill:#eba3a3"/><path d="M106.25,180.18c-18.16,7,3.47,58.06,18.24,52.4S136.64,168.37,106.25,180.18Z" transform="translate(2071.53 -43.7)" style="fill:#eba3a3"/><path d="M185.1,131.75c-22.95,3.72-8.37,57.66,9.43,55.56S211.06,127.54,185.1,131.75Z" transform="translate(2071.53 -43.7)" style="fill:#eba3a3"/><path d="M275.87,125.88c-19-2.75-22.58,50.51-6.08,55.23S295.41,128.71,275.87,125.88Z" transform="translate(2071.53 -43.7)" style="fill:#eba3a3"/><path d="M353.57,174.9c-18.2-10.43-33.72,29.71-22.35,39.56C341.38,223.14,368.85,183.66,353.57,174.9Z" transform="translate(2071.53 -43.7)" style="fill:#eba3a3"/></svg>