<svg xmlns="http://www.w3.org/2000/svg" width="351.73" height="797.63" viewBox="0 0 351.73 797.63"><path d="M335.1,295c20-50.41,78.86-128.76,59.89-158.71-25.8-40.73-69.62-8-76.73-11s8.34-55-29.95-67.75c-41.55-13.85-53.91,41.71-67.19,37.59-9.48-2.94-31.64-47.16-66.05-35.51-28.84,7.44-29.51,37.52-28.47,62.75,2.61,12.13-9.9,1.88-34.44,0-32.56-2.5-57.27,26.66-38.95,67.09,21.7,47.92,66.79,94.54,69.28,116S95.54,719.74,86.56,853H373.65S318.93,335.86,335.1,295Z" transform="translate(-46.97 -55.36)" fill="#c26e40"/><path d="M345.67,558.39c-17-4.95-32.17-9.47-35.36-23.41-7.19-31.44-53.45-15.72-64.67-53.86s-76.36-27-108.72-67.41c-7.88-9.85-13.86-17-18.39-21.59-1,16.12-2.15,33.91-3.41,52.89,35.74,72.91,97.8,112.39,107.72,158,10.88,50.08,74.45,26.27,87.47,91,10.84,53.87,22.88,107.85,61.51,141.3C367.3,791.67,355.31,673.42,345.67,558.39Z" transform="translate(-46.97 -55.36)" fill="#593524"/><path d="M222,186c-51.43,0-65.41,53.15-46.69,67.38s24.7-9.74,45.67-9.74,27.69,24,46.41,7.49S268.91,186,222,186Z" transform="translate(-46.97 -55.36)" fill="#f4e9e3"/><path d="M339.82,170.25c13.92,12.49-16.47,34.44-26.95,26.95S326.64,158.43,339.82,170.25Z" transform="translate(-46.97 -55.36)" fill="#f4e9e3"/><path d="M266.84,126c14.92,5.33,2.3,44.12-13.29,38.48C239.58,159.41,249.75,119.87,266.84,126Z" transform="translate(-46.97 -55.36)" fill="#f4e9e3"/><path d="M175.62,122.84c15.79-5.12,26,36.93,12,41.92S157.16,128.83,175.62,122.84Z" transform="translate(-46.97 -55.36)" fill="#f4e9e3"/><path d="M104,169.67c12.48-9.84,37.38,20.78,25.1,30.4S89.06,181.47,104,169.67Z" transform="translate(-46.97 -55.36)" fill="#f4e9e3"/><path d="M104.22,603c23.44,104.87,62.55,71.93,63.95,118.35s61.13,25.45,66.46,62.88c2.89,20.37,21.27,44.72,18,68.72h-166C90.23,798.61,97.3,701,104.22,603Z" transform="translate(-46.97 -55.36)" fill="#593524"/></svg>